<svg width="351" height="345" viewBox="0 0 351 345" fill="none" xmlns="http://www.w3.org/2000/svg">
<g filter="url(#filter0_d_6816_37298)">
<ellipse cx="137.978" cy="14.6369" rx="7.27473" ry="6.01336" fill="#4AACFF"/>
<path d="M137.978 21.6503C142.361 21.6503 146.253 18.68 146.253 14.6369C146.253 10.5938 142.361 7.62354 137.978 7.62354C133.594 7.62354 129.703 10.5938 129.703 14.6369C129.703 18.68 133.594 21.6503 137.978 21.6503Z" stroke="white" stroke-width="2"/>
</g>
<g filter="url(#filter1_d_6816_37298)">
<ellipse cx="155.41" cy="16.3947" rx="7.27473" ry="6.01336" fill="#4AACFF"/>
<path d="M155.409 23.4081C159.793 23.4081 163.684 20.4378 163.684 16.3947C163.684 12.3516 159.793 9.38135 155.409 9.38135C151.026 9.38135 147.135 12.3516 147.135 16.3947C147.135 20.4378 151.026 23.4081 155.409 23.4081Z" stroke="white" stroke-width="2"/>
</g>
<g filter="url(#filter2_d_6816_37298)">
<ellipse cx="44.3939" cy="65.467" rx="7.27473" ry="6.01336" fill="#4AACFF"/>
<path d="M44.3939 72.4803C48.7772 72.4803 52.6686 69.5101 52.6686 65.467C52.6686 61.4239 48.7772 58.4536 44.3939 58.4536C40.0105 58.4536 36.1191 61.4239 36.1191 65.467C36.1191 69.5101 40.0105 72.4803 44.3939 72.4803Z" stroke="white" stroke-width="2"/>
</g>
<g filter="url(#filter3_d_6816_37298)">
<ellipse cx="195.859" cy="61.1457" rx="7.27473" ry="6.01336" fill="#4AACFF"/>
<path d="M195.859 68.1591C200.242 68.1591 204.133 65.1888 204.133 61.1457C204.133 57.1026 200.242 54.1323 195.859 54.1323C191.475 54.1323 187.584 57.1026 187.584 61.1457C187.584 65.1888 191.475 68.1591 195.859 68.1591Z" stroke="white" stroke-width="2"/>
</g>
<g filter="url(#filter4_d_6816_37298)">
<ellipse cx="209.999" cy="67.6642" rx="7.27473" ry="6.01336" fill="#4AACFF"/>
<path d="M209.999 74.6776C214.383 74.6776 218.274 71.7074 218.274 67.6642C218.274 63.6211 214.383 60.6509 209.999 60.6509C205.616 60.6509 201.725 63.6211 201.725 67.6642C201.725 71.7074 205.616 74.6776 209.999 74.6776Z" stroke="white" stroke-width="2"/>
</g>
<g filter="url(#filter5_d_6816_37298)">
<ellipse cx="199.394" cy="67.6642" rx="7.27473" ry="6.01336" fill="#4AACFF"/>
<path d="M199.394 74.6776C203.777 74.6776 207.669 71.7074 207.669 67.6642C207.669 63.6211 203.777 60.6509 199.394 60.6509C195.01 60.6509 191.119 63.6211 191.119 67.6642C191.119 71.7074 195.01 74.6776 199.394 74.6776Z" stroke="white" stroke-width="2"/>
</g>
<g filter="url(#filter6_d_6816_37298)">
<ellipse cx="212.154" cy="48.6945" rx="7.27473" ry="6.01336" fill="#4AACFF"/>
<path d="M212.154 55.7079C216.537 55.7079 220.428 52.7376 220.428 48.6945C220.428 44.6514 216.537 41.6812 212.154 41.6812C207.77 41.6812 203.879 44.6514 203.879 48.6945C203.879 52.7376 207.77 55.7079 212.154 55.7079Z" stroke="white" stroke-width="2"/>
</g>
<g filter="url(#filter7_d_6816_37298)">
<ellipse cx="334.843" cy="121.79" rx="7.27473" ry="6.01336" fill="#4AACFF"/>
<path d="M334.843 128.804C339.226 128.804 343.118 125.833 343.118 121.79C343.118 117.747 339.226 114.777 334.843 114.777C330.46 114.777 326.568 117.747 326.568 121.79C326.568 125.833 330.46 128.804 334.843 128.804Z" stroke="white" stroke-width="2"/>
</g>
<g filter="url(#filter8_d_6816_37298)">
<ellipse cx="212.154" cy="203.236" rx="7.27473" ry="6.01336" fill="#4AACFF"/>
<path d="M212.154 210.249C216.537 210.249 220.428 207.279 220.428 203.236C220.428 199.192 216.537 196.222 212.154 196.222C207.77 196.222 203.879 199.192 203.879 203.236C203.879 207.279 207.77 210.249 212.154 210.249Z" stroke="white" stroke-width="2"/>
</g>
<g filter="url(#filter9_d_6816_37298)">
<ellipse cx="162.148" cy="330.75" rx="7.27473" ry="6.01336" fill="#4AACFF"/>
<path d="M162.148 337.764C166.531 337.764 170.423 334.793 170.423 330.75C170.423 326.707 166.531 323.737 162.148 323.737C157.764 323.737 153.873 326.707 153.873 330.75C153.873 334.793 157.764 337.764 162.148 337.764Z" stroke="white" stroke-width="2"/>
</g>
<g filter="url(#filter10_d_6816_37298)">
<ellipse cx="174.343" cy="322.694" rx="7.27473" ry="6.01336" fill="#4AACFF"/>
<path d="M174.343 329.707C178.726 329.707 182.618 326.737 182.618 322.694C182.618 318.65 178.726 315.68 174.343 315.68C169.96 315.68 166.068 318.65 166.068 322.694C166.068 326.737 169.96 329.707 174.343 329.707Z" stroke="white" stroke-width="2"/>
</g>
<g filter="url(#filter11_d_6816_37298)">
<ellipse cx="16.0443" cy="169.764" rx="7.27473" ry="6.01336" fill="#4AACFF"/>
<path d="M16.0443 176.777C20.4276 176.777 24.319 173.807 24.319 169.764C24.319 165.721 20.4276 162.75 16.0443 162.75C11.6609 162.75 7.76953 165.721 7.76953 169.764C7.76953 173.807 11.6609 176.777 16.0443 176.777Z" stroke="white" stroke-width="2"/>
</g>
<g filter="url(#filter12_d_6816_37298)">
<ellipse cx="162.266" cy="64.1023" rx="9.69964" ry="8.01782" fill="#4AACFF"/>
<path d="M162.266 73.1201C167.989 73.1201 172.966 69.2524 172.966 64.1023C172.966 58.9521 167.989 55.0845 162.266 55.0845C156.543 55.0845 151.566 58.9521 151.566 64.1023C151.566 69.2524 156.543 73.1201 162.266 73.1201Z" stroke="white" stroke-width="2"/>
</g>
<defs>
<filter id="filter0_d_6816_37298" x="122.703" y="0.623535" width="30.5488" height="28.0266" filterUnits="userSpaceOnUse" color-interpolation-filters="sRGB">
<feFlood flood-opacity="0" result="BackgroundImageFix"/>
<feColorMatrix in="SourceAlpha" type="matrix" values="0 0 0 0 0 0 0 0 0 0 0 0 0 0 0 0 0 0 127 0" result="hardAlpha"/>
<feOffset/>
<feGaussianBlur stdDeviation="3"/>
<feComposite in2="hardAlpha" operator="out"/>
<feColorMatrix type="matrix" values="0 0 0 0 0.1875 0 0 0 0 0.1875 0 0 0 0 0.1875 0 0 0 0.27 0"/>
<feBlend mode="normal" in2="BackgroundImageFix" result="effect1_dropShadow_6816_37298"/>
<feBlend mode="normal" in="SourceGraphic" in2="effect1_dropShadow_6816_37298" result="shape"/>
</filter>
<filter id="filter1_d_6816_37298" x="140.135" y="2.38135" width="30.5488" height="28.0266" filterUnits="userSpaceOnUse" color-interpolation-filters="sRGB">
<feFlood flood-opacity="0" result="BackgroundImageFix"/>
<feColorMatrix in="SourceAlpha" type="matrix" values="0 0 0 0 0 0 0 0 0 0 0 0 0 0 0 0 0 0 127 0" result="hardAlpha"/>
<feOffset/>
<feGaussianBlur stdDeviation="3"/>
<feComposite in2="hardAlpha" operator="out"/>
<feColorMatrix type="matrix" values="0 0 0 0 0.1875 0 0 0 0 0.1875 0 0 0 0 0.1875 0 0 0 0.27 0"/>
<feBlend mode="normal" in2="BackgroundImageFix" result="effect1_dropShadow_6816_37298"/>
<feBlend mode="normal" in="SourceGraphic" in2="effect1_dropShadow_6816_37298" result="shape"/>
</filter>
<filter id="filter2_d_6816_37298" x="29.1191" y="51.4536" width="30.5488" height="28.0266" filterUnits="userSpaceOnUse" color-interpolation-filters="sRGB">
<feFlood flood-opacity="0" result="BackgroundImageFix"/>
<feColorMatrix in="SourceAlpha" type="matrix" values="0 0 0 0 0 0 0 0 0 0 0 0 0 0 0 0 0 0 127 0" result="hardAlpha"/>
<feOffset/>
<feGaussianBlur stdDeviation="3"/>
<feComposite in2="hardAlpha" operator="out"/>
<feColorMatrix type="matrix" values="0 0 0 0 0.1875 0 0 0 0 0.1875 0 0 0 0 0.1875 0 0 0 0.27 0"/>
<feBlend mode="normal" in2="BackgroundImageFix" result="effect1_dropShadow_6816_37298"/>
<feBlend mode="normal" in="SourceGraphic" in2="effect1_dropShadow_6816_37298" result="shape"/>
</filter>
<filter id="filter3_d_6816_37298" x="180.584" y="47.1323" width="30.5488" height="28.0266" filterUnits="userSpaceOnUse" color-interpolation-filters="sRGB">
<feFlood flood-opacity="0" result="BackgroundImageFix"/>
<feColorMatrix in="SourceAlpha" type="matrix" values="0 0 0 0 0 0 0 0 0 0 0 0 0 0 0 0 0 0 127 0" result="hardAlpha"/>
<feOffset/>
<feGaussianBlur stdDeviation="3"/>
<feComposite in2="hardAlpha" operator="out"/>
<feColorMatrix type="matrix" values="0 0 0 0 0.1875 0 0 0 0 0.1875 0 0 0 0 0.1875 0 0 0 0.27 0"/>
<feBlend mode="normal" in2="BackgroundImageFix" result="effect1_dropShadow_6816_37298"/>
<feBlend mode="normal" in="SourceGraphic" in2="effect1_dropShadow_6816_37298" result="shape"/>
</filter>
<filter id="filter4_d_6816_37298" x="194.725" y="53.6509" width="30.5488" height="28.0266" filterUnits="userSpaceOnUse" color-interpolation-filters="sRGB">
<feFlood flood-opacity="0" result="BackgroundImageFix"/>
<feColorMatrix in="SourceAlpha" type="matrix" values="0 0 0 0 0 0 0 0 0 0 0 0 0 0 0 0 0 0 127 0" result="hardAlpha"/>
<feOffset/>
<feGaussianBlur stdDeviation="3"/>
<feComposite in2="hardAlpha" operator="out"/>
<feColorMatrix type="matrix" values="0 0 0 0 0.1875 0 0 0 0 0.1875 0 0 0 0 0.1875 0 0 0 0.27 0"/>
<feBlend mode="normal" in2="BackgroundImageFix" result="effect1_dropShadow_6816_37298"/>
<feBlend mode="normal" in="SourceGraphic" in2="effect1_dropShadow_6816_37298" result="shape"/>
</filter>
<filter id="filter5_d_6816_37298" x="184.119" y="53.6509" width="30.5488" height="28.0266" filterUnits="userSpaceOnUse" color-interpolation-filters="sRGB">
<feFlood flood-opacity="0" result="BackgroundImageFix"/>
<feColorMatrix in="SourceAlpha" type="matrix" values="0 0 0 0 0 0 0 0 0 0 0 0 0 0 0 0 0 0 127 0" result="hardAlpha"/>
<feOffset/>
<feGaussianBlur stdDeviation="3"/>
<feComposite in2="hardAlpha" operator="out"/>
<feColorMatrix type="matrix" values="0 0 0 0 0.1875 0 0 0 0 0.1875 0 0 0 0 0.1875 0 0 0 0.27 0"/>
<feBlend mode="normal" in2="BackgroundImageFix" result="effect1_dropShadow_6816_37298"/>
<feBlend mode="normal" in="SourceGraphic" in2="effect1_dropShadow_6816_37298" result="shape"/>
</filter>
<filter id="filter6_d_6816_37298" x="196.879" y="34.6812" width="30.5488" height="28.0266" filterUnits="userSpaceOnUse" color-interpolation-filters="sRGB">
<feFlood flood-opacity="0" result="BackgroundImageFix"/>
<feColorMatrix in="SourceAlpha" type="matrix" values="0 0 0 0 0 0 0 0 0 0 0 0 0 0 0 0 0 0 127 0" result="hardAlpha"/>
<feOffset/>
<feGaussianBlur stdDeviation="3"/>
<feComposite in2="hardAlpha" operator="out"/>
<feColorMatrix type="matrix" values="0 0 0 0 0.1875 0 0 0 0 0.1875 0 0 0 0 0.1875 0 0 0 0.27 0"/>
<feBlend mode="normal" in2="BackgroundImageFix" result="effect1_dropShadow_6816_37298"/>
<feBlend mode="normal" in="SourceGraphic" in2="effect1_dropShadow_6816_37298" result="shape"/>
</filter>
<filter id="filter7_d_6816_37298" x="319.568" y="107.777" width="30.5488" height="28.0266" filterUnits="userSpaceOnUse" color-interpolation-filters="sRGB">
<feFlood flood-opacity="0" result="BackgroundImageFix"/>
<feColorMatrix in="SourceAlpha" type="matrix" values="0 0 0 0 0 0 0 0 0 0 0 0 0 0 0 0 0 0 127 0" result="hardAlpha"/>
<feOffset/>
<feGaussianBlur stdDeviation="3"/>
<feComposite in2="hardAlpha" operator="out"/>
<feColorMatrix type="matrix" values="0 0 0 0 0.1875 0 0 0 0 0.1875 0 0 0 0 0.1875 0 0 0 0.27 0"/>
<feBlend mode="normal" in2="BackgroundImageFix" result="effect1_dropShadow_6816_37298"/>
<feBlend mode="normal" in="SourceGraphic" in2="effect1_dropShadow_6816_37298" result="shape"/>
</filter>
<filter id="filter8_d_6816_37298" x="196.879" y="189.222" width="30.5488" height="28.0266" filterUnits="userSpaceOnUse" color-interpolation-filters="sRGB">
<feFlood flood-opacity="0" result="BackgroundImageFix"/>
<feColorMatrix in="SourceAlpha" type="matrix" values="0 0 0 0 0 0 0 0 0 0 0 0 0 0 0 0 0 0 127 0" result="hardAlpha"/>
<feOffset/>
<feGaussianBlur stdDeviation="3"/>
<feComposite in2="hardAlpha" operator="out"/>
<feColorMatrix type="matrix" values="0 0 0 0 0.1875 0 0 0 0 0.1875 0 0 0 0 0.1875 0 0 0 0.27 0"/>
<feBlend mode="normal" in2="BackgroundImageFix" result="effect1_dropShadow_6816_37298"/>
<feBlend mode="normal" in="SourceGraphic" in2="effect1_dropShadow_6816_37298" result="shape"/>
</filter>
<filter id="filter9_d_6816_37298" x="146.873" y="316.737" width="30.5488" height="28.0266" filterUnits="userSpaceOnUse" color-interpolation-filters="sRGB">
<feFlood flood-opacity="0" result="BackgroundImageFix"/>
<feColorMatrix in="SourceAlpha" type="matrix" values="0 0 0 0 0 0 0 0 0 0 0 0 0 0 0 0 0 0 127 0" result="hardAlpha"/>
<feOffset/>
<feGaussianBlur stdDeviation="3"/>
<feComposite in2="hardAlpha" operator="out"/>
<feColorMatrix type="matrix" values="0 0 0 0 0.1875 0 0 0 0 0.1875 0 0 0 0 0.1875 0 0 0 0.27 0"/>
<feBlend mode="normal" in2="BackgroundImageFix" result="effect1_dropShadow_6816_37298"/>
<feBlend mode="normal" in="SourceGraphic" in2="effect1_dropShadow_6816_37298" result="shape"/>
</filter>
<filter id="filter10_d_6816_37298" x="159.068" y="308.68" width="30.5488" height="28.0266" filterUnits="userSpaceOnUse" color-interpolation-filters="sRGB">
<feFlood flood-opacity="0" result="BackgroundImageFix"/>
<feColorMatrix in="SourceAlpha" type="matrix" values="0 0 0 0 0 0 0 0 0 0 0 0 0 0 0 0 0 0 127 0" result="hardAlpha"/>
<feOffset/>
<feGaussianBlur stdDeviation="3"/>
<feComposite in2="hardAlpha" operator="out"/>
<feColorMatrix type="matrix" values="0 0 0 0 0.1875 0 0 0 0 0.1875 0 0 0 0 0.1875 0 0 0 0.27 0"/>
<feBlend mode="normal" in2="BackgroundImageFix" result="effect1_dropShadow_6816_37298"/>
<feBlend mode="normal" in="SourceGraphic" in2="effect1_dropShadow_6816_37298" result="shape"/>
</filter>
<filter id="filter11_d_6816_37298" x="0.769531" y="155.75" width="30.5488" height="28.0266" filterUnits="userSpaceOnUse" color-interpolation-filters="sRGB">
<feFlood flood-opacity="0" result="BackgroundImageFix"/>
<feColorMatrix in="SourceAlpha" type="matrix" values="0 0 0 0 0 0 0 0 0 0 0 0 0 0 0 0 0 0 127 0" result="hardAlpha"/>
<feOffset/>
<feGaussianBlur stdDeviation="3"/>
<feComposite in2="hardAlpha" operator="out"/>
<feColorMatrix type="matrix" values="0 0 0 0 0.1875 0 0 0 0 0.1875 0 0 0 0 0.1875 0 0 0 0.27 0"/>
<feBlend mode="normal" in2="BackgroundImageFix" result="effect1_dropShadow_6816_37298"/>
<feBlend mode="normal" in="SourceGraphic" in2="effect1_dropShadow_6816_37298" result="shape"/>
</filter>
<filter id="filter12_d_6816_37298" x="130.566" y="34.0845" width="63.3984" height="60.0356" filterUnits="userSpaceOnUse" color-interpolation-filters="sRGB">
<feFlood flood-opacity="0" result="BackgroundImageFix"/>
<feColorMatrix in="SourceAlpha" type="matrix" values="0 0 0 0 0 0 0 0 0 0 0 0 0 0 0 0 0 0 127 0" result="hardAlpha"/>
<feOffset/>
<feGaussianBlur stdDeviation="10"/>
<feComposite in2="hardAlpha" operator="out"/>
<feColorMatrix type="matrix" values="0 0 0 0 0.160784 0 0 0 0 0.607843 0 0 0 0 0.847059 0 0 0 1 0"/>
<feBlend mode="normal" in2="BackgroundImageFix" result="effect1_dropShadow_6816_37298"/>
<feBlend mode="normal" in="SourceGraphic" in2="effect1_dropShadow_6816_37298" result="shape"/>
</filter>
</defs>
</svg>
