<svg width="430" height="519" viewBox="0 0 430 519" fill="none" xmlns="http://www.w3.org/2000/svg">
<g filter="url(#filter0_d_6816_37322)">
<ellipse cx="168.496" cy="17.8317" rx="9" ry="9.20348" fill="#4AACFF"/>
<path d="M168.496 28.0351C174.04 28.0351 178.496 23.4457 178.496 17.8317C178.496 12.2176 174.04 7.62817 168.496 7.62817C162.952 7.62817 158.496 12.2176 158.496 17.8317C158.496 23.4457 162.952 28.0351 168.496 28.0351Z" stroke="white" stroke-width="2"/>
</g>
<g filter="url(#filter1_d_6816_37322)">
<ellipse cx="190.062" cy="20.5535" rx="9" ry="9.20348" fill="#4AACFF"/>
<path d="M190.062 30.7569C195.606 30.7569 200.062 26.1675 200.062 20.5535C200.062 14.9394 195.606 10.35 190.062 10.35C184.519 10.35 180.062 14.9394 180.062 20.5535C180.062 26.1675 184.519 30.7569 190.062 30.7569Z" stroke="white" stroke-width="2"/>
</g>
<g filter="url(#filter2_d_6816_37322)">
<ellipse cx="52.7168" cy="95.6492" rx="9" ry="9.20348" fill="#4AACFF"/>
<path d="M52.7168 105.853C58.2606 105.853 62.7168 101.263 62.7168 95.6492C62.7168 90.0351 58.2606 85.4457 52.7168 85.4457C47.173 85.4457 42.7168 90.0351 42.7168 95.6492C42.7168 101.263 47.173 105.853 52.7168 105.853Z" stroke="white" stroke-width="2"/>
</g>
<g filter="url(#filter3_d_6816_37322)">
<ellipse cx="240.105" cy="88.9795" rx="9" ry="9.20348" fill="#4AACFF"/>
<path d="M240.105 99.183C245.649 99.183 250.105 94.5935 250.105 88.9795C250.105 83.3655 245.649 78.776 240.105 78.776C234.562 78.776 230.105 83.3655 230.105 88.9795C230.105 94.5935 234.562 99.183 240.105 99.183Z" stroke="white" stroke-width="2"/>
</g>
<g filter="url(#filter4_d_6816_37322)">
<ellipse cx="257.598" cy="98.9836" rx="9" ry="9.20348" fill="#4AACFF"/>
<path d="M257.598 109.187C263.141 109.187 267.598 104.598 267.598 98.9836C267.598 93.3696 263.141 88.7802 257.598 88.7802C252.054 88.7802 247.598 93.3696 247.598 98.9836C247.598 104.598 252.054 109.187 257.598 109.187Z" stroke="white" stroke-width="2"/>
</g>
<g filter="url(#filter5_d_6816_37322)">
<ellipse cx="244.477" cy="98.9836" rx="9" ry="9.20348" fill="#4AACFF"/>
<path d="M244.477 109.187C250.02 109.187 254.477 104.598 254.477 98.9836C254.477 93.3696 250.02 88.7802 244.477 88.7802C238.933 88.7802 234.477 93.3696 234.477 98.9836C234.477 104.598 238.933 109.187 244.477 109.187Z" stroke="white" stroke-width="2"/>
</g>
<g filter="url(#filter6_d_6816_37322)">
<ellipse cx="260.264" cy="69.915" rx="9" ry="9.20348" fill="#4AACFF"/>
<path d="M260.264 80.1185C265.807 80.1185 270.264 75.5291 270.264 69.915C270.264 64.301 265.807 59.7115 260.264 59.7115C254.72 59.7115 250.264 64.301 250.264 69.915C250.264 75.5291 254.72 80.1185 260.264 80.1185Z" stroke="white" stroke-width="2"/>
</g>
<g filter="url(#filter7_d_6816_37322)">
<ellipse cx="412.049" cy="181.86" rx="9" ry="9.20348" fill="#4AACFF"/>
<path d="M412.049 192.063C417.593 192.063 422.049 187.474 422.049 181.86C422.049 176.246 417.593 171.656 412.049 171.656C406.505 171.656 402.049 176.246 402.049 181.86C402.049 187.474 406.505 192.063 412.049 192.063Z" stroke="white" stroke-width="2"/>
</g>
<g filter="url(#filter8_d_6816_37322)">
<ellipse cx="260.264" cy="306.468" rx="9" ry="9.20348" fill="#4AACFF"/>
<path d="M260.264 316.671C265.807 316.671 270.264 312.082 270.264 306.468C270.264 300.854 265.807 296.264 260.264 296.264C254.72 296.264 250.264 300.854 250.264 306.468C250.264 312.082 254.72 316.671 260.264 316.671Z" stroke="white" stroke-width="2"/>
</g>
<g filter="url(#filter9_d_6816_37322)">
<ellipse cx="198.398" cy="501.661" rx="9" ry="9.20348" fill="#4AACFF"/>
<path d="M198.398 511.865C203.942 511.865 208.398 507.275 208.398 501.661C208.398 496.047 203.942 491.458 198.398 491.458C192.855 491.458 188.398 496.047 188.398 501.661C188.398 507.275 192.855 511.865 198.398 511.865Z" stroke="white" stroke-width="2"/>
</g>
<g filter="url(#filter10_d_6816_37322)">
<ellipse cx="213.484" cy="489.259" rx="9" ry="9.20348" fill="#4AACFF"/>
<path d="M213.484 499.462C219.028 499.462 223.484 494.873 223.484 489.259C223.484 483.645 219.028 479.055 213.484 479.055C207.941 479.055 203.484 483.645 203.484 489.259C203.484 494.873 207.941 499.462 213.484 499.462Z" stroke="white" stroke-width="2"/>
</g>
<g filter="url(#filter11_d_6816_37322)">
<ellipse cx="17.6445" cy="255.224" rx="9" ry="9.20348" fill="#4AACFF"/>
<path d="M17.6445 265.428C23.1883 265.428 27.6445 260.839 27.6445 255.224C27.6445 249.61 23.1883 245.021 17.6445 245.021C12.1007 245.021 7.64453 249.61 7.64453 255.224C7.64453 260.839 12.1007 265.428 17.6445 265.428Z" stroke="white" stroke-width="2"/>
</g>
<g filter="url(#filter12_d_6816_37322)">
<ellipse cx="198.543" cy="93.533" rx="12" ry="12.2713" fill="#4AACFF"/>
<path d="M198.543 106.804C205.744 106.804 211.543 100.841 211.543 93.533C211.543 86.2247 205.744 80.2617 198.543 80.2617C191.342 80.2617 185.543 86.2247 185.543 93.533C185.543 100.841 191.342 106.804 198.543 106.804Z" stroke="white" stroke-width="2"/>
</g>
<defs>
<filter id="filter0_d_6816_37322" x="151.496" y="0.628174" width="34" height="34.407" filterUnits="userSpaceOnUse" color-interpolation-filters="sRGB">
<feFlood flood-opacity="0" result="BackgroundImageFix"/>
<feColorMatrix in="SourceAlpha" type="matrix" values="0 0 0 0 0 0 0 0 0 0 0 0 0 0 0 0 0 0 127 0" result="hardAlpha"/>
<feOffset/>
<feGaussianBlur stdDeviation="3"/>
<feComposite in2="hardAlpha" operator="out"/>
<feColorMatrix type="matrix" values="0 0 0 0 0.1875 0 0 0 0 0.1875 0 0 0 0 0.1875 0 0 0 0.27 0"/>
<feBlend mode="normal" in2="BackgroundImageFix" result="effect1_dropShadow_6816_37322"/>
<feBlend mode="normal" in="SourceGraphic" in2="effect1_dropShadow_6816_37322" result="shape"/>
</filter>
<filter id="filter1_d_6816_37322" x="173.062" y="3.34998" width="34" height="34.407" filterUnits="userSpaceOnUse" color-interpolation-filters="sRGB">
<feFlood flood-opacity="0" result="BackgroundImageFix"/>
<feColorMatrix in="SourceAlpha" type="matrix" values="0 0 0 0 0 0 0 0 0 0 0 0 0 0 0 0 0 0 127 0" result="hardAlpha"/>
<feOffset/>
<feGaussianBlur stdDeviation="3"/>
<feComposite in2="hardAlpha" operator="out"/>
<feColorMatrix type="matrix" values="0 0 0 0 0.1875 0 0 0 0 0.1875 0 0 0 0 0.1875 0 0 0 0.27 0"/>
<feBlend mode="normal" in2="BackgroundImageFix" result="effect1_dropShadow_6816_37322"/>
<feBlend mode="normal" in="SourceGraphic" in2="effect1_dropShadow_6816_37322" result="shape"/>
</filter>
<filter id="filter2_d_6816_37322" x="35.7168" y="78.4457" width="34" height="34.407" filterUnits="userSpaceOnUse" color-interpolation-filters="sRGB">
<feFlood flood-opacity="0" result="BackgroundImageFix"/>
<feColorMatrix in="SourceAlpha" type="matrix" values="0 0 0 0 0 0 0 0 0 0 0 0 0 0 0 0 0 0 127 0" result="hardAlpha"/>
<feOffset/>
<feGaussianBlur stdDeviation="3"/>
<feComposite in2="hardAlpha" operator="out"/>
<feColorMatrix type="matrix" values="0 0 0 0 0.1875 0 0 0 0 0.1875 0 0 0 0 0.1875 0 0 0 0.27 0"/>
<feBlend mode="normal" in2="BackgroundImageFix" result="effect1_dropShadow_6816_37322"/>
<feBlend mode="normal" in="SourceGraphic" in2="effect1_dropShadow_6816_37322" result="shape"/>
</filter>
<filter id="filter3_d_6816_37322" x="223.105" y="71.776" width="34" height="34.407" filterUnits="userSpaceOnUse" color-interpolation-filters="sRGB">
<feFlood flood-opacity="0" result="BackgroundImageFix"/>
<feColorMatrix in="SourceAlpha" type="matrix" values="0 0 0 0 0 0 0 0 0 0 0 0 0 0 0 0 0 0 127 0" result="hardAlpha"/>
<feOffset/>
<feGaussianBlur stdDeviation="3"/>
<feComposite in2="hardAlpha" operator="out"/>
<feColorMatrix type="matrix" values="0 0 0 0 0.1875 0 0 0 0 0.1875 0 0 0 0 0.1875 0 0 0 0.27 0"/>
<feBlend mode="normal" in2="BackgroundImageFix" result="effect1_dropShadow_6816_37322"/>
<feBlend mode="normal" in="SourceGraphic" in2="effect1_dropShadow_6816_37322" result="shape"/>
</filter>
<filter id="filter4_d_6816_37322" x="240.598" y="81.7802" width="34" height="34.407" filterUnits="userSpaceOnUse" color-interpolation-filters="sRGB">
<feFlood flood-opacity="0" result="BackgroundImageFix"/>
<feColorMatrix in="SourceAlpha" type="matrix" values="0 0 0 0 0 0 0 0 0 0 0 0 0 0 0 0 0 0 127 0" result="hardAlpha"/>
<feOffset/>
<feGaussianBlur stdDeviation="3"/>
<feComposite in2="hardAlpha" operator="out"/>
<feColorMatrix type="matrix" values="0 0 0 0 0.1875 0 0 0 0 0.1875 0 0 0 0 0.1875 0 0 0 0.27 0"/>
<feBlend mode="normal" in2="BackgroundImageFix" result="effect1_dropShadow_6816_37322"/>
<feBlend mode="normal" in="SourceGraphic" in2="effect1_dropShadow_6816_37322" result="shape"/>
</filter>
<filter id="filter5_d_6816_37322" x="227.477" y="81.7802" width="34" height="34.407" filterUnits="userSpaceOnUse" color-interpolation-filters="sRGB">
<feFlood flood-opacity="0" result="BackgroundImageFix"/>
<feColorMatrix in="SourceAlpha" type="matrix" values="0 0 0 0 0 0 0 0 0 0 0 0 0 0 0 0 0 0 127 0" result="hardAlpha"/>
<feOffset/>
<feGaussianBlur stdDeviation="3"/>
<feComposite in2="hardAlpha" operator="out"/>
<feColorMatrix type="matrix" values="0 0 0 0 0.1875 0 0 0 0 0.1875 0 0 0 0 0.1875 0 0 0 0.27 0"/>
<feBlend mode="normal" in2="BackgroundImageFix" result="effect1_dropShadow_6816_37322"/>
<feBlend mode="normal" in="SourceGraphic" in2="effect1_dropShadow_6816_37322" result="shape"/>
</filter>
<filter id="filter6_d_6816_37322" x="243.264" y="52.7115" width="34" height="34.407" filterUnits="userSpaceOnUse" color-interpolation-filters="sRGB">
<feFlood flood-opacity="0" result="BackgroundImageFix"/>
<feColorMatrix in="SourceAlpha" type="matrix" values="0 0 0 0 0 0 0 0 0 0 0 0 0 0 0 0 0 0 127 0" result="hardAlpha"/>
<feOffset/>
<feGaussianBlur stdDeviation="3"/>
<feComposite in2="hardAlpha" operator="out"/>
<feColorMatrix type="matrix" values="0 0 0 0 0.1875 0 0 0 0 0.1875 0 0 0 0 0.1875 0 0 0 0.27 0"/>
<feBlend mode="normal" in2="BackgroundImageFix" result="effect1_dropShadow_6816_37322"/>
<feBlend mode="normal" in="SourceGraphic" in2="effect1_dropShadow_6816_37322" result="shape"/>
</filter>
<filter id="filter7_d_6816_37322" x="395.049" y="164.656" width="34" height="34.407" filterUnits="userSpaceOnUse" color-interpolation-filters="sRGB">
<feFlood flood-opacity="0" result="BackgroundImageFix"/>
<feColorMatrix in="SourceAlpha" type="matrix" values="0 0 0 0 0 0 0 0 0 0 0 0 0 0 0 0 0 0 127 0" result="hardAlpha"/>
<feOffset/>
<feGaussianBlur stdDeviation="3"/>
<feComposite in2="hardAlpha" operator="out"/>
<feColorMatrix type="matrix" values="0 0 0 0 0.1875 0 0 0 0 0.1875 0 0 0 0 0.1875 0 0 0 0.27 0"/>
<feBlend mode="normal" in2="BackgroundImageFix" result="effect1_dropShadow_6816_37322"/>
<feBlend mode="normal" in="SourceGraphic" in2="effect1_dropShadow_6816_37322" result="shape"/>
</filter>
<filter id="filter8_d_6816_37322" x="243.264" y="289.264" width="34" height="34.407" filterUnits="userSpaceOnUse" color-interpolation-filters="sRGB">
<feFlood flood-opacity="0" result="BackgroundImageFix"/>
<feColorMatrix in="SourceAlpha" type="matrix" values="0 0 0 0 0 0 0 0 0 0 0 0 0 0 0 0 0 0 127 0" result="hardAlpha"/>
<feOffset/>
<feGaussianBlur stdDeviation="3"/>
<feComposite in2="hardAlpha" operator="out"/>
<feColorMatrix type="matrix" values="0 0 0 0 0.1875 0 0 0 0 0.1875 0 0 0 0 0.1875 0 0 0 0.27 0"/>
<feBlend mode="normal" in2="BackgroundImageFix" result="effect1_dropShadow_6816_37322"/>
<feBlend mode="normal" in="SourceGraphic" in2="effect1_dropShadow_6816_37322" result="shape"/>
</filter>
<filter id="filter9_d_6816_37322" x="181.398" y="484.458" width="34" height="34.407" filterUnits="userSpaceOnUse" color-interpolation-filters="sRGB">
<feFlood flood-opacity="0" result="BackgroundImageFix"/>
<feColorMatrix in="SourceAlpha" type="matrix" values="0 0 0 0 0 0 0 0 0 0 0 0 0 0 0 0 0 0 127 0" result="hardAlpha"/>
<feOffset/>
<feGaussianBlur stdDeviation="3"/>
<feComposite in2="hardAlpha" operator="out"/>
<feColorMatrix type="matrix" values="0 0 0 0 0.1875 0 0 0 0 0.1875 0 0 0 0 0.1875 0 0 0 0.27 0"/>
<feBlend mode="normal" in2="BackgroundImageFix" result="effect1_dropShadow_6816_37322"/>
<feBlend mode="normal" in="SourceGraphic" in2="effect1_dropShadow_6816_37322" result="shape"/>
</filter>
<filter id="filter10_d_6816_37322" x="196.484" y="472.055" width="34" height="34.407" filterUnits="userSpaceOnUse" color-interpolation-filters="sRGB">
<feFlood flood-opacity="0" result="BackgroundImageFix"/>
<feColorMatrix in="SourceAlpha" type="matrix" values="0 0 0 0 0 0 0 0 0 0 0 0 0 0 0 0 0 0 127 0" result="hardAlpha"/>
<feOffset/>
<feGaussianBlur stdDeviation="3"/>
<feComposite in2="hardAlpha" operator="out"/>
<feColorMatrix type="matrix" values="0 0 0 0 0.1875 0 0 0 0 0.1875 0 0 0 0 0.1875 0 0 0 0.27 0"/>
<feBlend mode="normal" in2="BackgroundImageFix" result="effect1_dropShadow_6816_37322"/>
<feBlend mode="normal" in="SourceGraphic" in2="effect1_dropShadow_6816_37322" result="shape"/>
</filter>
<filter id="filter11_d_6816_37322" x="0.644531" y="238.021" width="34" height="34.407" filterUnits="userSpaceOnUse" color-interpolation-filters="sRGB">
<feFlood flood-opacity="0" result="BackgroundImageFix"/>
<feColorMatrix in="SourceAlpha" type="matrix" values="0 0 0 0 0 0 0 0 0 0 0 0 0 0 0 0 0 0 127 0" result="hardAlpha"/>
<feOffset/>
<feGaussianBlur stdDeviation="3"/>
<feComposite in2="hardAlpha" operator="out"/>
<feColorMatrix type="matrix" values="0 0 0 0 0.1875 0 0 0 0 0.1875 0 0 0 0 0.1875 0 0 0 0.27 0"/>
<feBlend mode="normal" in2="BackgroundImageFix" result="effect1_dropShadow_6816_37322"/>
<feBlend mode="normal" in="SourceGraphic" in2="effect1_dropShadow_6816_37322" result="shape"/>
</filter>
<filter id="filter12_d_6816_37322" x="164.543" y="59.2617" width="68" height="68.5426" filterUnits="userSpaceOnUse" color-interpolation-filters="sRGB">
<feFlood flood-opacity="0" result="BackgroundImageFix"/>
<feColorMatrix in="SourceAlpha" type="matrix" values="0 0 0 0 0 0 0 0 0 0 0 0 0 0 0 0 0 0 127 0" result="hardAlpha"/>
<feOffset/>
<feGaussianBlur stdDeviation="10"/>
<feComposite in2="hardAlpha" operator="out"/>
<feColorMatrix type="matrix" values="0 0 0 0 0.160784 0 0 0 0 0.607843 0 0 0 0 0.847059 0 0 0 1 0"/>
<feBlend mode="normal" in2="BackgroundImageFix" result="effect1_dropShadow_6816_37322"/>
<feBlend mode="normal" in="SourceGraphic" in2="effect1_dropShadow_6816_37322" result="shape"/>
</filter>
</defs>
</svg>
