<svg width="30" height="31" viewBox="0 0 30 31" fill="none" xmlns="http://www.w3.org/2000/svg">
<g clip-path="url(#clip0_6816_36737)">
<path d="M19.4996 15.3871C19.4996 16.5805 19.0255 17.7251 18.1816 18.569C17.3377 19.413 16.1931 19.8871 14.9996 19.8871C13.8061 19.8871 12.6615 19.413 11.8176 18.569C10.9737 17.7251 10.4996 16.5805 10.4996 15.3871C10.4996 15.1306 10.5266 14.8801 10.5731 14.6371H8.99961V20.6326C8.99961 21.0496 9.33711 21.3871 9.75411 21.3871H20.2466C20.4465 21.3867 20.638 21.307 20.7792 21.1655C20.9203 21.0241 20.9996 20.8324 20.9996 20.6326V14.6371H19.4261C19.4726 14.8801 19.4996 15.1306 19.4996 15.3871ZM14.9996 18.3871C15.3937 18.387 15.7839 18.3092 16.1479 18.1584C16.5119 18.0075 16.8427 17.7863 17.1212 17.5076C17.3998 17.2289 17.6208 16.8981 17.7715 16.534C17.9222 16.1698 17.9997 15.7796 17.9996 15.3856C17.9995 14.9915 17.9218 14.6013 17.7709 14.2373C17.62 13.8733 17.3989 13.5425 17.1202 13.2639C16.8415 12.9854 16.5106 12.7644 16.1465 12.6137C15.7824 12.463 15.3922 12.3855 14.9981 12.3856C14.2023 12.3858 13.4391 12.7021 12.8765 13.265C12.3139 13.8279 11.9979 14.5912 11.9981 15.3871C11.9983 16.1829 12.3147 16.9461 12.8775 17.5087C13.4404 18.0713 14.2038 18.3873 14.9996 18.3871ZM18.5996 12.2371H20.3981C20.5176 12.2371 20.6322 12.1897 20.7168 12.1053C20.8015 12.021 20.8492 11.9065 20.8496 11.7871V9.98856C20.8496 9.86882 20.802 9.75397 20.7174 9.6693C20.6327 9.58463 20.5179 9.53706 20.3981 9.53706H18.5996C18.4799 9.53706 18.365 9.58463 18.2804 9.6693C18.1957 9.75397 18.1481 9.86882 18.1481 9.98856V11.7871C18.1496 12.0346 18.3521 12.2371 18.5996 12.2371ZM14.9996 0.987061C11.1805 0.987061 7.5178 2.5042 4.81727 5.20472C2.11675 7.90525 0.599609 11.5679 0.599609 15.3871C0.599609 19.2062 2.11675 22.8689 4.81727 25.5694C7.5178 28.2699 11.1805 29.7871 14.9996 29.7871C16.8906 29.7871 18.7632 29.4146 20.5103 28.6909C22.2573 27.9673 23.8448 26.9066 25.182 25.5694C26.5191 24.2322 27.5798 22.6448 28.3035 20.8977C29.0271 19.1506 29.3996 17.2781 29.3996 15.3871C29.3996 13.496 29.0271 11.6235 28.3035 9.87642C27.5798 8.12933 26.5191 6.54189 25.182 5.20472C23.8448 3.86756 22.2573 2.80686 20.5103 2.0832C18.7632 1.35953 16.8906 0.987061 14.9996 0.987061ZM22.4996 21.2206C22.4996 22.1371 21.7496 22.8871 20.8331 22.8871H9.16611C8.24961 22.8871 7.49961 22.1371 7.49961 21.2206V9.55356C7.49961 8.63706 8.24961 7.88706 9.16611 7.88706H20.8331C21.7496 7.88706 22.4996 8.63706 22.4996 9.55356V21.2206Z" fill="white"/>
</g>
<defs>
<clipPath id="clip0_6816_36737">
<rect width="30" height="30" fill="white" transform="translate(0 0.386963)"/>
</clipPath>
</defs>
</svg>
