<svg width="30" height="31" viewBox="0 0 30 31" fill="none" xmlns="http://www.w3.org/2000/svg">
<g clip-path="url(#clip0_6816_36735)">
<path d="M14.9996 0.987061C7.04661 0.987061 0.599609 7.43406 0.599609 15.3871C0.599609 23.3401 7.04661 29.7871 14.9996 29.7871C22.9526 29.7871 29.3996 23.3401 29.3996 15.3871C29.3996 7.43406 22.9526 0.987061 14.9996 0.987061ZM20.8571 12.7831C20.8631 12.9061 20.8646 13.0291 20.8646 13.1491C20.8646 16.8991 18.0131 21.2206 12.7961 21.2206C11.2546 21.2231 9.74506 20.7804 8.44911 19.9456C8.66961 19.9726 8.89611 19.9831 9.12561 19.9831C10.4546 19.9831 11.6771 19.5316 12.6476 18.7696C12.0562 18.7579 11.4831 18.5621 11.0083 18.2093C10.5334 17.8566 10.1805 17.3644 9.99861 16.8016C10.4233 16.8823 10.8609 16.8654 11.2781 16.7521C10.6362 16.6223 10.0589 16.2744 9.64417 15.7676C9.22944 15.2607 9.00277 14.626 9.00261 13.9711V13.9366C9.38511 14.1481 9.82311 14.2771 10.2881 14.2921C9.68631 13.8915 9.26029 13.2761 9.09718 12.5718C8.93407 11.8675 9.04619 11.1274 9.41061 10.5031C10.123 11.3791 11.0115 12.0957 12.0185 12.6065C13.0254 13.1174 14.1284 13.4111 15.2561 13.4686C15.1127 12.86 15.1744 12.2212 15.4316 11.6513C15.6888 11.0815 16.127 10.6125 16.6782 10.3175C17.2294 10.0224 17.8626 9.91765 18.4795 10.0196C19.0963 10.1215 19.6622 10.4243 20.0891 10.8811C20.7239 10.7555 21.3326 10.5226 21.8891 10.1926C21.6776 10.8498 21.2346 11.4078 20.6426 11.7631C21.2049 11.6953 21.7539 11.5442 22.2716 11.3146C21.8913 11.8844 21.4123 12.3817 20.8571 12.7831Z" fill="white"/>
</g>
<defs>
<clipPath id="clip0_6816_36735">
<rect width="30" height="30" fill="white" transform="translate(0 0.386963)"/>
</clipPath>
</defs>
</svg>
