<svg width="30" height="31" viewBox="0 0 30 31" fill="none" xmlns="http://www.w3.org/2000/svg">
<g clip-path="url(#clip0_6816_36733)">
<path d="M14.9996 0.987061C7.04661 0.987061 0.599609 7.43406 0.599609 15.3871C0.599609 23.3401 7.04661 29.7871 14.9996 29.7871C22.9526 29.7871 29.3996 23.3401 29.3996 15.3871C29.3996 7.43406 22.9526 0.987061 14.9996 0.987061ZM18.4106 10.9381H16.2461C15.9896 10.9381 15.7046 11.2756 15.7046 11.7241V13.2871H18.4121L18.0026 15.5161H15.7046V22.2076H13.1501V15.5161H10.8326V13.2871H13.1501V11.9761C13.1501 10.0951 14.4551 8.56656 16.2461 8.56656H18.4106V10.9381Z" fill="white"/>
</g>
<defs>
<clipPath id="clip0_6816_36733">
<rect width="30" height="30" fill="white" transform="translate(0 0.386963)"/>
</clipPath>
</defs>
</svg>
