<svg width="24" height="24" viewBox="0 0 24 24" fill="none" xmlns="http://www.w3.org/2000/svg">
<path fill-rule="evenodd" clip-rule="evenodd" d="M7.42718 5.14286C7.27562 5.14286 7.13028 5.20306 7.02312 5.31022C6.91595 5.41739 6.85575 5.56273 6.85575 5.71429V8C6.85575 8.15155 6.91595 8.2969 7.02312 8.40406C7.13028 8.51122 7.27562 8.57143 7.42718 8.57143C7.57873 8.57143 7.72407 8.51122 7.83124 8.40406C7.9384 8.2969 7.9986 8.15155 7.9986 8V5.71429C7.9986 5.56273 7.9384 5.41739 7.83124 5.31022C7.72407 5.20306 7.57873 5.14286 7.42718 5.14286ZM7.42718 4C7.88183 4 8.31787 4.18061 8.63936 4.5021C8.96085 4.82359 9.14146 5.25963 9.14146 5.71429V8C9.14146 8.45466 8.96085 8.89069 8.63936 9.21218C8.31787 9.53367 7.88183 9.71429 7.42718 9.71429C6.97252 9.71429 6.53648 9.53367 6.21499 9.21218C5.8935 8.89069 5.71289 8.45466 5.71289 8V5.71429C5.71289 5.25963 5.8935 4.82359 6.21499 4.5021C6.53648 4.18061 6.97252 4 7.42718 4Z" fill="#303030"/>
<path fill-rule="evenodd" clip-rule="evenodd" d="M8 6.8572C8 6.5416 8.25584 6.28577 8.57143 6.28577H21.1429C21.4584 6.28577 21.7143 6.5416 21.7143 6.8572C21.7143 7.17279 21.4584 7.42862 21.1429 7.42862H8.57143C8.25584 7.42862 8 7.17279 8 6.8572Z" fill="#303030"/>
<path fill-rule="evenodd" clip-rule="evenodd" d="M2.28516 6.8572C2.28516 6.5416 2.54099 6.28577 2.85658 6.28577H6.28516C6.60075 6.28577 6.85659 6.5416 6.85659 6.8572C6.85659 7.17279 6.60075 7.42862 6.28516 7.42862H2.85658C2.54099 7.42862 2.28516 7.17279 2.28516 6.8572Z" fill="#303030"/>
<path fill-rule="evenodd" clip-rule="evenodd" d="M7.42718 16.5714C7.27562 16.5714 7.13028 16.6316 7.02312 16.7388C6.91595 16.846 6.85575 16.9913 6.85575 17.1429V19.4286C6.85575 19.5801 6.91595 19.7255 7.02312 19.8327C7.13028 19.9398 7.27562 20 7.42718 20C7.57873 20 7.72407 19.9398 7.83124 19.8327C7.9384 19.7255 7.9986 19.5801 7.9986 19.4286V17.1429C7.9986 16.9913 7.9384 16.846 7.83124 16.7388C7.72407 16.6316 7.57873 16.5714 7.42718 16.5714ZM6.21499 15.9307C6.53648 15.6092 6.97252 15.4286 7.42718 15.4286C7.88183 15.4286 8.31787 15.6092 8.63936 15.9307C8.96085 16.2522 9.14146 16.6882 9.14146 17.1429V19.4286C9.14146 19.8832 8.96085 20.3193 8.63936 20.6408C8.31787 20.9623 7.88183 21.1429 7.42718 21.1429C6.97252 21.1429 6.53649 20.9623 6.21499 20.6408C5.8935 20.3193 5.71289 19.8832 5.71289 19.4286V17.1429C5.71289 16.6882 5.8935 16.2522 6.21499 15.9307Z" fill="#303030"/>
<path fill-rule="evenodd" clip-rule="evenodd" d="M8 18.2857C8 17.9701 8.25584 17.7142 8.57143 17.7142H21.1429C21.4584 17.7142 21.7143 17.9701 21.7143 18.2857C21.7143 18.6013 21.4584 18.8571 21.1429 18.8571H8.57143C8.25584 18.8571 8 18.6013 8 18.2857Z" fill="#303030"/>
<path fill-rule="evenodd" clip-rule="evenodd" d="M2.28516 18.2857C2.28516 17.9701 2.54099 17.7142 2.85658 17.7142H6.28516C6.60075 17.7142 6.85659 17.9701 6.85659 18.2857C6.85659 18.6013 6.60075 18.8571 6.28516 18.8571H2.85658C2.54099 18.8571 2.28516 18.6013 2.28516 18.2857Z" fill="#303030"/>
<path fill-rule="evenodd" clip-rule="evenodd" d="M16.5717 10.8571C16.4202 10.8571 16.2748 10.9173 16.1676 11.0245C16.0605 11.1316 16.0003 11.277 16.0003 11.4285V13.7142C16.0003 13.8658 16.0605 14.0111 16.1676 14.1183C16.2748 14.2255 16.4202 14.2857 16.5717 14.2857C16.7233 14.2857 16.8686 14.2255 16.9758 14.1183C17.0829 14.0111 17.1431 13.8658 17.1431 13.7142V11.4285C17.1431 11.277 17.0829 11.1316 16.9758 11.0245C16.8686 10.9173 16.7233 10.8571 16.5717 10.8571ZM16.5717 9.71423C17.0264 9.71423 17.4624 9.89485 17.7839 10.2163C18.1054 10.5378 18.286 10.9739 18.286 11.4285V13.7142C18.286 14.1689 18.1054 14.6049 17.7839 14.9264C17.4624 15.2479 17.0264 15.4285 16.5717 15.4285C16.1171 15.4285 15.681 15.2479 15.3595 14.9264C15.038 14.6049 14.8574 14.1689 14.8574 13.7142V11.4285C14.8574 10.9739 15.038 10.5378 15.3595 10.2163C15.681 9.89485 16.1171 9.71423 16.5717 9.71423Z" fill="#303030"/>
<path fill-rule="evenodd" clip-rule="evenodd" d="M2.28516 12.5714C2.28516 12.2558 2.54099 12 2.85658 12H15.428C15.7436 12 15.9994 12.2558 15.9994 12.5714C15.9994 12.887 15.7436 13.1429 15.428 13.1429H2.85658C2.54099 13.1429 2.28516 12.887 2.28516 12.5714Z" fill="#303030"/>
<path fill-rule="evenodd" clip-rule="evenodd" d="M17.1426 12.5714C17.1426 12.2558 17.3984 12 17.714 12H21.1426C21.4582 12 21.714 12.2558 21.714 12.5714C21.714 12.887 21.4582 13.1429 21.1426 13.1429H17.714C17.3984 13.1429 17.1426 12.887 17.1426 12.5714Z" fill="#303030"/>
</svg>
