<svg width="30" height="27" viewBox="0 0 30 27" fill="none" xmlns="http://www.w3.org/2000/svg">
<path d="M25.7499 4.76458C25.4347 3.90417 24.5522 3.29167 23.5121 3.29167H19.5722V1.83333C19.5722 1.03125 18.8631 0.375 17.9963 0.375H11.6926C10.8259 0.375 10.1167 1.03125 10.1167 1.83333V3.29167H6.17687C5.13676 3.29167 4.27 3.90417 3.93906 4.76458L0.834484 13.0333C0.72417 13.3396 0.661133 13.6604 0.661133 13.9958V24.4375C0.661133 25.6479 1.717 26.625 3.02502 26.625C4.33304 26.625 5.38891 25.6479 5.38891 24.4375V23.7083H24.3V24.4375C24.3 25.6333 25.3559 26.625 26.6639 26.625C27.9562 26.625 29.0278 25.6479 29.0278 24.4375V13.9958C29.0278 13.675 28.9648 13.3396 28.8544 13.0333L25.7499 4.76458ZM6.17687 19.3333C4.86885 19.3333 3.81298 18.3563 3.81298 17.1458C3.81298 15.9354 4.86885 14.9583 6.17687 14.9583C7.48489 14.9583 8.54076 15.9354 8.54076 17.1458C8.54076 18.3563 7.48489 19.3333 6.17687 19.3333ZM23.5121 19.3333C22.204 19.3333 21.1482 18.3563 21.1482 17.1458C21.1482 15.9354 22.204 14.9583 23.5121 14.9583C24.8201 14.9583 25.8759 15.9354 25.8759 17.1458C25.8759 18.3563 24.8201 19.3333 23.5121 19.3333ZM3.81298 12.0417L6.17687 5.47917H23.5121L25.8759 12.0417H3.81298Z" fill="white"/>
</svg>
