<svg width="32" height="32" viewBox="0 0 32 32" fill="none" xmlns="http://www.w3.org/2000/svg">
<path d="M21.7612 1.0427C21.1023 0.390368 20.2089 0.0239258 19.2774 0.0239258C18.3458 0.0239258 17.4524 0.390368 16.7936 1.0427L1.36607 16.3277C1.03979 16.651 0.780966 17.0347 0.604383 17.457C0.4278 17.8794 0.336914 18.332 0.336914 18.7891C0.336914 19.2462 0.4278 19.6989 0.604383 20.1212C0.780966 20.5435 1.03979 20.9273 1.36607 21.2505L3.19632 23.0621C3.99276 23.8527 5.11245 23.7119 5.78865 23.3128C6.16165 23.0933 6.5978 23.0033 7.02823 23.0568C7.45866 23.1102 7.85885 23.3042 8.16559 23.6081C8.47234 23.912 8.66817 24.3085 8.72216 24.7349C8.77615 25.1613 8.68523 25.5934 8.46375 25.9629C8.0624 26.6328 7.91873 27.742 8.71673 28.531L10.5485 30.3442C10.8748 30.6674 11.2622 30.9238 11.6885 31.0988C12.1148 31.2737 12.5717 31.3637 13.0331 31.3637C13.4945 31.3637 13.9515 31.2737 14.3778 31.0988C14.8041 30.9238 15.1914 30.6674 15.5177 30.3442L30.9436 15.0622C31.2699 14.739 31.5287 14.3553 31.7053 13.9329C31.8819 13.5106 31.9728 13.058 31.9728 12.6009C31.9728 12.1437 31.8819 11.6911 31.7053 11.2688C31.5287 10.8464 31.2699 10.4627 30.9436 10.1395L29.1149 8.3263C28.3185 7.53729 27.1972 7.67653 26.521 8.07567C26.148 8.29509 25.7119 8.38516 25.2815 8.33167C24.851 8.27819 24.4508 8.08418 24.1441 7.7803C23.8374 7.47642 23.6415 7.07997 23.5875 6.65356C23.5335 6.22715 23.6245 5.79507 23.8459 5.42555C24.2489 4.75566 24.391 3.64642 23.593 2.85741L21.7627 1.0427H21.7612Z" fill="white"/>
</svg>
