<svg width="17" height="18" viewBox="0 0 17 18" fill="none" xmlns="http://www.w3.org/2000/svg">
<path d="M16.1058 6.43973L11.1163 5.65551L8.88591 0.765268C8.825 0.631376 8.72477 0.522988 8.60097 0.457105C8.29048 0.291334 7.91317 0.429476 7.75793 0.765268L5.5275 5.65551L0.538023 6.43973C0.400464 6.46098 0.274695 6.53112 0.178403 6.63738C0.0619923 6.76678 -0.00215557 6.94087 5.53105e-05 7.12139C0.00226619 7.30191 0.0706549 7.4741 0.190194 7.60012L3.80015 11.4065L2.94728 16.7813C2.92728 16.9063 2.94007 17.0349 2.98421 17.1525C3.02834 17.27 3.10205 17.3719 3.19698 17.4464C3.29191 17.521 3.40426 17.5653 3.52129 17.5743C3.63832 17.5834 3.75535 17.5567 3.8591 17.4975L8.32192 14.9599L12.7847 17.4975C12.9066 17.5676 13.0481 17.591 13.1837 17.5655C13.5256 17.5017 13.7555 17.1511 13.6966 16.7813L12.8437 11.4065L16.4536 7.60012C16.5519 7.49599 16.6168 7.35997 16.6364 7.2112C16.6895 6.83928 16.4497 6.49499 16.1058 6.43973Z" fill="#FDBF00"/>
</svg>
