<svg width="17" height="18" viewBox="0 0 17 18" fill="none" xmlns="http://www.w3.org/2000/svg">
<path d="M16.1368 6.43973L11.1377 5.65551L8.903 0.765268C8.84197 0.631376 8.74155 0.522988 8.61751 0.457105C8.30642 0.291334 7.92839 0.429476 7.77285 0.765268L5.53813 5.65551L0.539058 6.43973C0.401234 6.46098 0.275223 6.53112 0.178747 6.63738C0.0621115 6.76678 -0.00215972 6.94087 5.54169e-05 7.12139C0.00227055 7.30191 0.0707908 7.4741 0.19056 7.60012L3.80745 11.4065L2.95295 16.7813C2.93291 16.9063 2.94572 17.0349 2.98995 17.1525C3.03417 17.27 3.10802 17.3719 3.20313 17.4464C3.29825 17.521 3.41081 17.5653 3.52806 17.5743C3.64532 17.5834 3.76257 17.5567 3.86652 17.4975L8.33792 14.9599L12.8093 17.4975C12.9314 17.5676 13.0732 17.591 13.209 17.5655C13.5516 17.5017 13.782 17.1511 13.7229 16.7813L12.8684 11.4065L16.4853 7.60012C16.5837 7.49599 16.6487 7.35997 16.6684 7.2112C16.7216 6.83928 16.4813 6.49499 16.1368 6.43973Z" fill="#FDBF00"/>
</svg>
