<svg width="25" height="26" viewBox="0 0 25 26" fill="none" xmlns="http://www.w3.org/2000/svg">
<path d="M12.5 23.1904C9.76733 23.1904 7.14661 22.1048 5.21434 20.1726C3.28207 18.2403 2.19653 15.6196 2.19653 12.8869C2.19653 10.1543 3.28207 7.53357 5.21434 5.6013C7.14661 3.66903 9.76733 2.58349 12.5 2.58349C15.2326 2.58349 17.8533 3.66903 19.7856 5.6013C21.7179 7.53357 22.8034 10.1543 22.8034 12.8869C22.8034 15.6196 21.7179 18.2403 19.7856 20.1726C17.8533 22.1048 15.2326 23.1904 12.5 23.1904ZM12.5 24.6623C15.623 24.6623 18.6181 23.4217 20.8264 21.2134C23.0347 19.0051 24.2753 16.0099 24.2753 12.8869C24.2753 9.76391 23.0347 6.7688 20.8264 4.56049C18.6181 2.35219 15.623 1.11157 12.5 1.11157C9.37695 1.11157 6.38184 2.35219 4.17353 4.56049C1.96522 6.7688 0.724609 9.76391 0.724609 12.8869C0.724609 16.0099 1.96522 19.0051 4.17353 21.2134C6.38184 23.4217 9.37695 24.6623 12.5 24.6623Z" fill="#1262AF"/>
<path d="M9.87124 7.88667C10.0101 7.81516 10.166 7.78336 10.3218 7.79474C10.4775 7.80612 10.6271 7.86026 10.7541 7.95118L16.6965 12.1957C16.8065 12.2743 16.8962 12.3779 16.9581 12.4981C17.02 12.6183 17.0523 12.7516 17.0523 12.8867C17.0523 13.0219 17.02 13.1552 16.9581 13.2754C16.8962 13.3956 16.8065 13.4992 16.6965 13.5778L10.7541 17.8223C10.6272 17.9132 10.4776 17.9673 10.3219 17.9786C10.1663 17.99 10.0105 17.9583 9.87164 17.8868C9.73284 17.8154 9.61641 17.7071 9.53517 17.5738C9.45392 17.4405 9.41101 17.2874 9.41113 17.1313V8.6422C9.41097 8.48614 9.45383 8.33305 9.535 8.19976C9.61617 8.06648 9.73251 7.95814 9.87124 7.88667Z" fill="#1262AF"/>
</svg>
