<svg width="25" height="24" viewBox="0 0 25 24" fill="none" xmlns="http://www.w3.org/2000/svg">
<g clip-path="url(#clip0_6816_37237)">
<path d="M12.8727 21.8913C10.2494 21.8913 7.73348 20.8492 5.8785 18.9942C4.02352 17.1392 2.9814 14.6234 2.9814 12C2.9814 9.37669 4.02352 6.8608 5.8785 5.00582C7.73348 3.15084 10.2494 2.10872 12.8727 2.10872C15.496 2.10872 18.0119 3.15084 19.8669 5.00582C21.7219 6.8608 22.764 9.37669 22.764 12C22.764 14.6234 21.7219 17.1392 19.8669 18.9942C18.0119 20.8492 15.496 21.8913 12.8727 21.8913ZM12.8727 23.3044C15.8708 23.3044 18.7461 22.1134 20.8661 19.9934C22.9861 17.8734 24.177 14.9981 24.177 12C24.177 9.00192 22.9861 6.12662 20.8661 4.00664C18.7461 1.88667 15.8708 0.695679 12.8727 0.695679C9.8746 0.695679 6.9993 1.88667 4.87932 4.00664C2.75935 6.12662 1.56836 9.00192 1.56836 12C1.56836 14.9981 2.75935 17.8734 4.87932 19.9934C6.9993 22.1134 9.8746 23.3044 12.8727 23.3044Z" fill="#1262AF"/>
<path d="M10.3499 7.19992C10.4832 7.13127 10.6329 7.10074 10.7824 7.11166C10.9319 7.12259 11.0756 7.17456 11.1975 7.26185L16.9021 11.3366C17.0078 11.412 17.0939 11.5115 17.1533 11.6269C17.2127 11.7423 17.2437 11.8702 17.2437 12C17.2437 12.1298 17.2127 12.2577 17.1533 12.3731C17.0939 12.4885 17.0078 12.588 16.9021 12.6634L11.1975 16.7381C11.0756 16.8254 10.932 16.8773 10.7826 16.8882C10.6331 16.8991 10.4835 16.8686 10.3503 16.8001C10.217 16.7315 10.1053 16.6275 10.0273 16.4996C9.94928 16.3716 9.90808 16.2246 9.9082 16.0748V7.92522C9.90805 7.77541 9.94919 7.62845 10.0271 7.50049C10.105 7.37253 10.2167 7.26853 10.3499 7.19992Z" fill="#1262AF"/>
</g>
<defs>
<clipPath id="clip0_6816_37237">
<rect width="24" height="24" fill="white" transform="translate(0.873047)"/>
</clipPath>
</defs>
</svg>
